<?xml version="1.0" standalone="no"?>
<!DOCTYPE svg PUBLIC "-//W3C//DTD SVG 20010904//EN"
 "http://www.w3.org/TR/2001/REC-SVG-20010904/DTD/svg10.dtd">
<svg version="1.0" xmlns="http://www.w3.org/2000/svg"
 width="2000.000000pt" height="2000.000000pt" viewBox="0 0 2000.000000 2000.000000"
 preserveAspectRatio="xMidYMid meet">
<metadata>
Created by potrace 1.14, written by Peter Selinger 2001-2017
</metadata>
<g transform="translate(0.000000,2000.000000) scale(0.100000,-0.100000)"
fill="#000000" stroke="none">
<path d="M9114 16508 c3 -18 15 -69 26 -113 12 -44 23 -92 25 -107 2 -15 6
-32 10 -38 3 -5 8 -18 10 -27 1 -10 26 -110 55 -223 28 -113 53 -212 55 -220
2 -8 81 -321 176 -695 94 -374 174 -704 177 -732 3 -40 0 -59 -14 -81 l-19
-27 -305 -1 c-168 0 -334 -3 -370 -7 -92 -10 -268 -36 -315 -47 -22 -5 -55
-11 -73 -15 -93 -16 -389 -99 -447 -125 -11 -5 -47 -19 -80 -31 -33 -12 -78
-29 -100 -39 -22 -10 -74 -32 -115 -50 -41 -18 -78 -38 -82 -44 -4 -6 -8 -8
-8 -4 0 9 -163 -73 -168 -84 -2 -5 -8 -8 -13 -8 -16 0 -271 -156 -339 -207 -8
-6 -73 -55 -145 -109 -71 -53 -132 -100 -135 -104 -3 -3 -45 -42 -95 -86 -142
-126 -347 -337 -427 -440 -13 -16 -31 -38 -41 -49 -25 -28 -65 -97 -72 -126
-4 -17 -1 -30 12 -41 10 -9 114 -64 231 -123 117 -59 214 -111 217 -115 3 -4
-6 -15 -19 -23 -23 -15 -60 -46 -181 -150 -89 -77 -305 -294 -305 -307 0 -6
-4 -8 -10 -5 -5 3 -10 3 -10 -2 0 -4 -12 -22 -28 -38 -69 -76 -172 -204 -172
-214 0 -6 -4 -11 -9 -11 -5 0 -19 -15 -30 -33 -11 -18 -29 -44 -40 -57 -24
-29 -33 -41 -46 -62 -5 -9 -30 -47 -56 -85 -72 -108 -119 -182 -119 -187 0 -2
-21 -40 -46 -83 -41 -68 -178 -344 -206 -413 -6 -14 -17 -37 -25 -52 -8 -16
-11 -28 -7 -28 3 0 2 -6 -3 -12 -5 -7 -20 -40 -32 -73 -13 -33 -27 -69 -32
-80 -4 -11 -18 -51 -30 -90 -12 -38 -26 -76 -32 -82 -5 -7 -7 -13 -4 -13 3 0
-2 -21 -10 -47 -16 -52 -43 -149 -48 -173 -2 -8 -4 -15 -5 -15 -1 0 -3 -7 -5
-15 -2 -8 -11 -46 -20 -85 -9 -38 -18 -79 -20 -90 -2 -11 -11 -56 -19 -100 -9
-44 -18 -96 -21 -115 -2 -19 -7 -51 -9 -70 -3 -19 -8 -57 -12 -85 -22 -162
-29 -288 -29 -530 0 -221 6 -359 20 -475 7 -55 26 -189 30 -210 1 -8 6 -35 10
-60 9 -54 17 -92 39 -190 3 -14 11 -49 17 -77 17 -74 60 -156 89 -170 30 -13
126 -26 295 -37 39 -3 95 -7 125 -10 30 -3 89 -8 130 -11 85 -7 172 -14 245
-20 28 -2 57 -4 66 -5 9 0 22 -20 33 -52 102 -295 252 -604 416 -853 36 -55
67 -104 69 -110 2 -5 7 -12 10 -15 4 -3 39 -48 78 -100 40 -53 82 -107 95
-121 13 -14 41 -47 63 -75 50 -61 272 -284 344 -344 29 -25 59 -50 65 -55 6
-6 40 -33 76 -60 36 -28 67 -53 70 -56 25 -29 344 -229 450 -282 19 -10 42
-22 50 -27 41 -27 209 -97 440 -185 39 -15 165 -53 195 -59 11 -2 34 -9 50
-16 17 -6 32 -11 35 -10 5 1 62 -11 145 -30 22 -5 54 -11 70 -14 17 -2 61 -10
99 -16 82 -15 138 -11 341 25 44 8 96 17 115 20 60 10 186 31 235 41 17 3 46
7 65 9 19 2 35 4 35 5 0 2 27 7 72 14 21 3 63 10 93 16 30 6 72 13 94 15 99
11 153 92 124 188 -15 48 -43 70 -183 139 -60 30 -134 69 -163 86 -29 18 -56
32 -60 32 -4 0 -25 14 -46 30 -22 17 -43 30 -48 30 -5 0 -14 5 -21 10 -7 6
-63 46 -125 90 -62 44 -119 85 -126 92 -7 7 -31 27 -52 43 -90 69 -289 263
-359 350 -22 27 -47 56 -55 65 -8 9 -26 30 -40 48 -14 18 -35 45 -47 60 -13
15 -23 30 -23 34 0 4 -6 13 -12 20 -29 31 -57 77 -50 82 4 2 225 3 492 1 453
-2 490 -1 580 18 52 11 102 21 110 22 8 1 22 5 30 8 8 4 33 11 55 16 22 5 105
26 185 46 80 20 154 38 166 41 20 4 35 -10 133 -126 12 -14 29 -34 39 -45 10
-11 35 -42 57 -70 21 -27 44 -54 50 -60 5 -5 42 -53 80 -105 38 -52 75 -101
81 -107 7 -7 22 -29 35 -50 12 -21 27 -42 33 -48 6 -5 36 -48 66 -95 30 -47
58 -86 63 -88 4 -2 7 -8 7 -13 0 -6 5 -15 10 -22 6 -7 25 -34 42 -62 17 -27
46 -72 63 -100 18 -27 61 -97 95 -155 109 -181 141 -211 225 -212 33 -1 161
18 260 38 11 2 34 7 50 9 36 7 178 32 220 40 17 3 48 8 70 11 22 3 47 8 55 11
8 2 32 7 54 9 56 7 129 43 241 119 89 60 199 142 231 170 6 6 29 23 50 40 84
64 172 160 182 196 10 39 -3 139 -19 139 -5 0 -9 6 -9 14 0 18 -107 177 -219
326 -214 284 -488 573 -736 775 -38 31 -71 61 -73 66 -2 5 -9 9 -15 9 -7 0
-27 14 -46 30 -18 17 -37 30 -40 30 -4 0 -16 8 -27 18 -23 21 -205 143 -294
197 -80 48 -122 70 -152 79 -37 10 -160 36 -198 42 -19 3 -46 7 -60 10 -55 10
-69 13 -101 18 -19 3 -47 8 -64 12 -16 3 -35 7 -42 8 -7 1 -34 31 -60 67 -55
73 -73 95 -125 153 -20 22 -46 52 -58 66 -11 14 -75 80 -142 147 -139 139
-149 145 -353 193 -71 17 -141 33 -155 37 -14 3 -27 7 -30 8 -3 0 -22 4 -43 9
-37 7 -41 11 -82 99 -40 88 -89 219 -99 268 -3 13 -12 56 -20 94 -8 39 -18 97
-22 130 -10 76 -10 363 0 372 3 4 34 -3 69 -16 72 -27 441 -155 507 -177 25
-8 54 -19 65 -24 21 -9 202 -71 220 -75 6 -1 19 -6 30 -11 23 -10 157 -11 230
-1 211 29 548 25 705 -8 14 -3 45 -8 69 -11 25 -3 49 -8 54 -11 4 -3 22 -7 39
-10 50 -8 272 -155 411 -273 105 -89 300 -280 344 -338 12 -16 33 -40 45 -54
58 -64 148 -186 148 -198 0 -6 4 -10 9 -10 5 0 12 -8 15 -17 3 -10 17 -31 31
-47 14 -16 25 -35 25 -43 0 -7 4 -13 9 -13 5 0 13 -10 17 -22 4 -13 10 -25 13
-28 20 -16 118 -203 219 -421 55 -117 99 -170 168 -199 39 -17 129 -38 194
-46 14 -2 36 -5 50 -8 14 -3 52 -11 85 -16 33 -6 92 -17 130 -25 140 -28 181
-29 218 -6 18 11 40 33 47 48 8 15 21 36 29 46 8 9 11 17 6 17 -4 0 -3 6 2 13
6 6 38 83 72 169 35 86 72 167 83 180 11 13 25 30 32 38 9 14 51 42 181 125
28 19 45 28 98 58 74 41 202 135 234 172 21 23 46 65 56 93 18 53 136 462 143
497 2 11 8 31 13 45 11 26 30 100 31 113 0 4 6 23 14 42 9 20 15 38 15 40 1
18 46 186 58 215 3 8 7 20 8 25 2 6 17 64 35 129 34 125 36 189 8 236 -7 13
-110 120 -228 239 -236 238 -225 230 -480 343 -74 33 -151 67 -170 75 -40 18
-117 114 -150 188 -36 79 -25 151 55 380 36 105 73 204 81 222 7 17 14 35 14
40 0 4 14 44 31 88 16 44 32 87 34 95 2 8 9 31 14 50 14 46 14 109 -1 151 -12
38 -70 131 -105 169 -13 14 -23 28 -23 32 0 3 -6 13 -13 20 -7 7 -59 74 -116
148 -58 74 -111 142 -118 150 -7 8 -27 33 -43 55 -40 53 -63 83 -75 98 -5 6
-41 50 -78 97 -37 47 -81 101 -96 120 -16 19 -51 62 -77 95 -27 33 -52 62 -56
63 -4 2 -8 8 -8 14 0 6 -8 18 -18 27 -10 9 -51 59 -92 111 -41 52 -77 97 -80
100 -3 3 -32 39 -64 80 -33 41 -65 80 -70 85 -6 6 -24 27 -40 49 -16 21 -73
93 -128 160 -54 66 -109 134 -121 149 -22 29 -39 50 -67 84 -8 10 -31 38 -50
63 -19 25 -37 47 -40 50 -3 3 -35 41 -70 85 -36 44 -68 82 -72 83 -5 2 -8 10
-8 18 0 8 -4 14 -8 14 -4 0 -26 24 -47 53 -22 28 -42 54 -45 57 -4 3 -120 147
-260 320 -139 173 -265 329 -279 346 -14 17 -40 49 -57 70 -17 21 -111 137
-208 257 -97 120 -176 220 -176 223 0 2 -12 17 -27 33 -16 15 -32 34 -38 43
-5 9 -48 62 -95 119 -47 57 -90 111 -97 119 -6 8 -48 60 -93 115 -44 55 -86
107 -93 115 -52 65 -106 132 -129 161 -64 82 -126 149 -139 149 -11 0 -7 -36
11 -100 5 -19 18 -69 29 -110 11 -41 29 -109 41 -150 11 -41 23 -84 25 -95 3
-10 21 -78 41 -149 20 -72 38 -137 40 -146 2 -12 63 -231 78 -285 2 -5 6 -23
10 -40 4 -16 14 -52 22 -80 8 -27 32 -117 54 -200 22 -82 45 -166 51 -185 5
-19 12 -44 14 -55 2 -11 4 -20 5 -20 1 0 3 -7 5 -15 2 -8 11 -42 20 -75 9 -33
20 -76 24 -96 4 -19 11 -41 15 -47 4 -7 5 -12 2 -12 -2 0 -33 37 -67 83 -68
88 -77 100 -96 122 -7 7 -13 18 -13 23 0 6 -4 12 -8 14 -7 3 -92 108 -159 195
-12 15 -30 38 -40 51 -10 12 -27 34 -38 48 -45 58 -55 71 -84 105 -17 20 -31
40 -31 43 0 4 -11 18 -25 32 -14 14 -33 37 -43 52 -16 26 -28 41 -62 82 -8 9
-26 32 -40 50 -14 18 -71 92 -127 164 -57 72 -113 144 -125 160 -13 16 -27 34
-33 41 -5 6 -35 40 -65 75 -30 36 -59 70 -65 76 -5 6 -44 48 -85 94 -41 46
-87 96 -101 112 -15 16 -51 57 -82 91 -30 34 -67 76 -82 92 -80 87 -127 139
-195 215 -109 121 -108 120 -194 214 -43 47 -83 86 -88 86 -5 0 -7 -15 -4 -32z
m3299 -4891 c4 -9 100 -137 145 -192 4 -5 28 -37 52 -70 25 -33 47 -62 51 -65
22 -20 162 -216 174 -244 21 -50 4 -55 -69 -22 -31 14 -59 26 -61 26 -4 0 -46
19 -180 81 -22 10 -70 31 -107 48 -73 32 -70 26 -70 121 0 25 11 141 17 170 7
36 19 136 18 152 0 18 22 14 30 -5z m-2684 -1657 c-24 -21 -45 -37 -46 -36 -2
2 4 23 13 49 15 45 16 45 46 35 l30 -11 -43 -37z m-1269 -2035 c38 -6 100 -14
155 -20 28 -3 64 -7 80 -10 104 -16 144 -19 269 -19 l140 -1 38 -60 c60 -94
139 -258 144 -299 2 -20 5 -40 6 -44 8 -28 -17 -83 -50 -113 -46 -41 -98 -79
-110 -79 -4 0 -17 -8 -28 -17 -10 -10 -91 -65 -179 -123 -88 -58 -161 -108
-163 -112 -2 -5 -8 -8 -14 -8 -5 0 -24 -11 -42 -25 -40 -31 -48 -31 -62 -2 -6
12 -27 54 -47 92 -86 170 -199 495 -223 645 -3 19 -7 43 -10 52 -8 29 -14 62
-20 111 l-6 47 49 -5 c26 -3 59 -8 73 -10z"/>
</g>
</svg>
